<svg id="svg" version="1.1" xmlns="http://www.w3.org/2000/svg" xmlns:xlink="http://www.w3.org/1999/xlink" width="400" height="400" viewBox="0, 0, 400,400"><g id="svgg"><path id="path0" d="M148.667 104.667 C 148.334 105.000,148.310 273.300,148.643 274.167 C 148.942 274.947,203.263 275.130,213.000 274.385 C 237.715 272.492,254.038 264.835,264.971 250.004 C 269.298 244.134,273.901 232.576,275.167 224.400 C 275.389 222.970,275.773 220.540,276.021 219.000 C 276.312 217.196,276.399 212.856,276.267 206.800 C 275.997 194.464,275.304 189.616,272.579 181.000 C 269.229 170.412,262.029 160.196,253.400 153.788 C 248.647 150.258,239.195 145.988,232.800 144.480 C 220.170 141.503,210.579 141.085,198.800 142.997 C 197.150 143.265,195.665 143.409,195.500 143.318 C 195.335 143.227,195.200 134.433,195.200 123.776 L 195.200 104.400 172.067 104.400 C 159.343 104.400,148.813 104.520,148.667 104.667 M208.648 183.595 C 221.465 185.261,228.400 193.970,228.400 208.400 C 228.400 226.079,218.759 234.884,200.000 234.335 L 195.400 234.200 195.297 209.423 C 195.235 194.498,195.342 184.498,195.567 184.273 C 196.456 183.384,204.011 182.992,208.648 183.595 " stroke="none" fill="#fcfbfb" fill-rule="evenodd"></path><path id="path1" d="M178.700 0.273 C 176.555 0.359,174.800 0.602,174.800 0.814 C 174.800 1.027,173.540 1.200,172.000 1.200 C 170.400 1.200,169.200 1.371,169.200 1.600 C 169.200 1.822,168.133 2.000,166.800 2.000 C 165.467 2.000,164.400 2.178,164.400 2.400 C 164.400 2.620,163.421 2.800,162.224 2.800 C 161.027 2.800,159.936 2.980,159.800 3.200 C 159.664 3.420,158.933 3.600,158.176 3.600 C 157.419 3.600,156.800 3.780,156.800 4.000 C 156.800 4.220,155.900 4.400,154.800 4.400 C 153.700 4.400,152.800 4.580,152.800 4.800 C 152.800 5.020,152.080 5.200,151.200 5.200 C 150.320 5.200,149.600 5.380,149.600 5.600 C 149.600 5.820,148.880 6.000,148.000 6.000 C 147.120 6.000,146.400 6.180,146.400 6.400 C 146.400 6.620,145.860 6.800,145.200 6.800 C 144.540 6.800,144.000 6.980,144.000 7.200 C 144.000 7.420,143.370 7.600,142.600 7.600 C 141.830 7.600,141.200 7.780,141.200 8.000 C 141.200 8.220,140.771 8.400,140.246 8.400 C 139.222 8.400,135.447 9.440,134.305 10.037 C 133.923 10.237,133.259 10.400,132.829 10.400 C 132.399 10.400,131.936 10.580,131.800 10.800 C 131.664 11.020,131.203 11.200,130.776 11.200 C 130.349 11.200,130.000 11.380,130.000 11.600 C 130.000 11.820,129.460 12.000,128.800 12.000 C 128.140 12.000,127.600 12.180,127.600 12.400 C 127.600 12.620,127.150 12.800,126.600 12.800 C 126.050 12.800,125.600 12.980,125.600 13.200 C 125.600 13.420,125.240 13.600,124.800 13.600 C 124.360 13.600,124.000 13.780,124.000 14.000 C 124.000 14.220,123.460 14.400,122.800 14.400 C 122.140 14.400,121.600 14.580,121.600 14.800 C 121.600 15.020,121.240 15.200,120.800 15.200 C 120.360 15.200,120.000 15.380,120.000 15.600 C 120.000 15.820,119.640 16.000,119.200 16.000 C 118.760 16.000,118.400 16.180,118.400 16.400 C 118.400 16.620,118.040 16.800,117.600 16.800 C 117.160 16.800,116.800 16.980,116.800 17.200 C 116.800 17.420,116.260 17.600,115.600 17.600 C 114.940 17.600,114.400 17.780,114.400 18.000 C 114.400 18.220,114.040 18.400,113.600 18.400 C 113.160 18.400,112.799 18.535,112.799 18.700 C 112.798 18.865,111.808 19.450,110.600 20.000 C 109.392 20.550,108.402 21.135,108.401 21.300 C 108.401 21.465,108.040 21.600,107.600 21.600 C 107.160 21.600,106.800 21.780,106.800 22.000 C 106.800 22.220,106.480 22.400,106.088 22.400 C 105.697 22.400,105.117 22.760,104.800 23.200 C 104.483 23.640,103.903 24.000,103.512 24.000 C 103.120 24.000,102.800 24.180,102.800 24.400 C 102.800 24.620,102.536 24.800,102.214 24.800 C 101.401 24.800,98.800 26.076,98.800 26.474 C 98.800 26.653,98.440 26.800,98.000 26.800 C 97.560 26.800,97.200 26.980,97.200 27.200 C 97.200 27.420,96.964 27.600,96.675 27.600 C 96.387 27.600,95.802 27.915,95.375 28.300 C 94.949 28.685,94.060 29.269,93.400 29.597 C 92.740 29.926,91.909 30.511,91.553 30.897 C 91.197 31.284,90.652 31.600,90.341 31.600 C 90.031 31.600,89.517 31.960,89.200 32.400 C 88.883 32.840,88.343 33.200,88.000 33.200 C 87.657 33.200,87.117 33.560,86.800 34.000 C 86.483 34.440,85.975 34.800,85.672 34.800 C 85.369 34.800,84.617 35.340,84.000 36.000 C 83.383 36.660,82.631 37.200,82.328 37.200 C 82.025 37.200,81.517 37.560,81.200 38.000 C 80.883 38.440,80.375 38.800,80.072 38.800 C 79.769 38.800,79.017 39.340,78.400 40.000 C 77.783 40.660,77.119 41.200,76.923 41.200 C 76.727 41.200,75.899 41.830,75.082 42.600 C 74.266 43.370,73.409 44.000,73.177 44.000 C 72.945 44.000,71.696 45.080,70.400 46.400 C 69.104 47.720,67.849 48.800,67.609 48.800 C 67.370 48.800,65.194 50.825,62.774 53.300 C 57.490 58.703,58.703 57.490,53.300 62.774 C 50.825 65.194,48.800 67.372,48.800 67.613 C 48.800 67.855,47.900 68.929,46.800 70.000 C 45.700 71.071,44.800 72.146,44.800 72.387 C 44.800 72.629,44.170 73.457,43.400 74.227 C 42.630 74.997,42.000 75.779,42.000 75.965 C 42.000 76.151,41.280 77.045,40.400 77.952 C 39.520 78.859,38.800 79.831,38.800 80.112 C 38.800 80.393,38.440 80.883,38.000 81.200 C 37.560 81.517,37.200 82.025,37.200 82.328 C 37.200 82.631,36.660 83.383,36.000 84.000 C 35.340 84.617,34.800 85.369,34.800 85.672 C 34.800 85.975,34.440 86.483,34.000 86.800 C 33.560 87.117,33.200 87.657,33.200 88.000 C 33.200 88.343,32.840 88.883,32.400 89.200 C 31.960 89.517,31.600 90.031,31.600 90.341 C 31.600 90.652,31.284 91.197,30.897 91.553 C 30.511 91.909,29.926 92.740,29.597 93.400 C 29.269 94.060,28.685 94.949,28.300 95.375 C 27.915 95.802,27.600 96.387,27.600 96.675 C 27.600 96.964,27.420 97.200,27.200 97.200 C 26.980 97.200,26.800 97.560,26.800 98.000 C 26.800 98.440,26.653 98.800,26.474 98.800 C 26.076 98.800,24.800 101.401,24.800 102.214 C 24.800 102.536,24.620 102.800,24.400 102.800 C 24.180 102.800,24.000 103.160,24.000 103.600 C 24.000 104.040,23.820 104.400,23.600 104.400 C 23.380 104.400,23.200 104.720,23.200 105.112 C 23.200 105.503,22.840 106.083,22.400 106.400 C 21.960 106.717,21.600 107.297,21.600 107.688 C 21.600 108.080,21.454 108.400,21.275 108.400 C 21.096 108.400,20.702 109.030,20.400 109.800 C 20.098 110.570,19.704 111.200,19.525 111.200 C 19.346 111.200,19.200 111.560,19.200 112.000 C 19.200 112.440,19.020 112.800,18.800 112.800 C 18.580 112.800,18.400 113.340,18.400 114.000 C 18.400 114.660,18.220 115.200,18.000 115.200 C 17.780 115.200,17.600 115.560,17.600 116.000 C 17.600 116.440,17.420 116.800,17.200 116.800 C 16.980 116.800,16.800 117.160,16.800 117.600 C 16.800 118.040,16.620 118.400,16.400 118.400 C 16.180 118.400,16.000 118.760,16.000 119.200 C 16.000 119.640,15.820 120.000,15.600 120.000 C 15.380 120.000,15.200 120.540,15.200 121.200 C 15.200 121.860,15.020 122.400,14.800 122.400 C 14.580 122.400,14.400 122.760,14.400 123.200 C 14.400 123.640,14.220 124.000,14.000 124.000 C 13.780 124.000,13.600 124.360,13.600 124.800 C 13.600 125.240,13.420 125.600,13.200 125.600 C 12.980 125.600,12.800 126.039,12.800 126.576 C 12.800 127.113,12.620 127.664,12.400 127.800 C 12.180 127.936,12.000 128.487,12.000 129.024 C 12.000 129.561,11.820 130.000,11.600 130.000 C 11.380 130.000,11.200 130.349,11.200 130.776 C 11.200 131.203,11.020 131.664,10.800 131.800 C 10.580 131.936,10.400 132.476,10.400 133.000 C 10.400 133.524,10.220 134.064,10.000 134.200 C 9.780 134.336,9.600 134.851,9.600 135.344 C 9.600 135.837,9.421 136.419,9.202 136.638 C 8.984 136.856,8.688 138.152,8.546 139.518 C 8.403 140.883,8.132 142.000,7.943 142.000 C 7.754 142.000,7.600 142.450,7.600 143.000 C 7.600 143.550,7.420 144.000,7.200 144.000 C 6.980 144.000,6.800 144.720,6.800 145.600 C 6.800 146.480,6.620 147.200,6.400 147.200 C 6.180 147.200,6.000 147.740,6.000 148.400 C 6.000 149.060,5.820 149.600,5.600 149.600 C 5.380 149.600,5.200 150.320,5.200 151.200 C 5.200 152.080,5.020 152.800,4.800 152.800 C 4.580 152.800,4.400 153.700,4.400 154.800 C 4.400 155.900,4.220 156.800,4.000 156.800 C 3.780 156.800,3.600 157.610,3.600 158.600 C 3.600 159.590,3.420 160.400,3.200 160.400 C 2.980 160.400,2.800 161.300,2.800 162.400 C 2.800 163.500,2.620 164.400,2.400 164.400 C 2.178 164.400,2.000 165.467,2.000 166.800 C 2.000 168.133,1.822 169.200,1.600 169.200 C 1.372 169.200,1.200 170.389,1.200 171.967 C 1.200 173.824,1.036 174.788,0.700 174.900 C -0.032 175.144,-0.032 224.856,0.700 225.100 C 1.036 225.212,1.200 226.176,1.200 228.033 C 1.200 229.611,1.372 230.800,1.600 230.800 C 1.822 230.800,2.000 231.867,2.000 233.200 C 2.000 234.533,2.178 235.600,2.400 235.600 C 2.620 235.600,2.800 236.579,2.800 237.776 C 2.800 238.973,2.980 240.064,3.200 240.200 C 3.420 240.336,3.600 241.067,3.600 241.824 C 3.600 242.581,3.780 243.200,4.000 243.200 C 4.220 243.200,4.400 244.100,4.400 245.200 C 4.400 246.300,4.580 247.200,4.800 247.200 C 5.020 247.200,5.200 247.920,5.200 248.800 C 5.200 249.680,5.380 250.400,5.600 250.400 C 5.820 250.400,6.000 251.120,6.000 252.000 C 6.000 252.880,6.180 253.600,6.400 253.600 C 6.620 253.600,6.800 254.140,6.800 254.800 C 6.800 255.460,6.980 256.000,7.200 256.000 C 7.420 256.000,7.600 256.630,7.600 257.400 C 7.600 258.170,7.780 258.800,8.000 258.800 C 8.220 258.800,8.400 259.229,8.400 259.754 C 8.400 260.778,9.440 264.553,10.037 265.695 C 10.237 266.077,10.400 266.741,10.400 267.171 C 10.400 267.601,10.580 268.064,10.800 268.200 C 11.020 268.336,11.200 268.797,11.200 269.224 C 11.200 269.651,11.380 270.000,11.600 270.000 C 11.820 270.000,12.000 270.439,12.000 270.976 C 12.000 271.513,12.180 272.064,12.400 272.200 C 12.620 272.336,12.800 272.887,12.800 273.424 C 12.800 273.961,12.980 274.400,13.200 274.400 C 13.420 274.400,13.600 274.760,13.600 275.200 C 13.600 275.640,13.780 276.000,14.000 276.000 C 14.220 276.000,14.400 276.540,14.400 277.200 C 14.400 277.860,14.580 278.400,14.800 278.400 C 15.020 278.400,15.200 278.760,15.200 279.200 C 15.200 279.640,15.380 280.000,15.600 280.000 C 15.820 280.000,16.000 280.360,16.000 280.800 C 16.000 281.240,16.180 281.600,16.400 281.600 C 16.620 281.600,16.800 281.960,16.800 282.400 C 16.800 282.840,16.980 283.200,17.200 283.200 C 17.420 283.200,17.600 283.740,17.600 284.400 C 17.600 285.060,17.780 285.600,18.000 285.600 C 18.220 285.600,18.400 285.960,18.400 286.400 C 18.400 286.840,18.535 287.201,18.700 287.201 C 18.865 287.202,19.450 288.192,20.000 289.400 C 20.550 290.608,21.135 291.598,21.300 291.599 C 21.465 291.599,21.600 291.960,21.600 292.400 C 21.600 292.840,21.780 293.200,22.000 293.200 C 22.220 293.200,22.400 293.520,22.400 293.912 C 22.400 294.303,22.760 294.883,23.200 295.200 C 23.640 295.517,24.000 296.097,24.000 296.488 C 24.000 296.880,24.180 297.200,24.400 297.200 C 24.620 297.200,24.800 297.464,24.800 297.786 C 24.800 298.599,26.076 301.200,26.474 301.200 C 26.653 301.200,26.800 301.560,26.800 302.000 C 26.800 302.440,26.980 302.800,27.200 302.800 C 27.420 302.800,27.600 303.036,27.600 303.325 C 27.600 303.613,27.915 304.198,28.300 304.625 C 28.685 305.051,29.269 305.940,29.597 306.600 C 29.926 307.260,30.511 308.091,30.897 308.447 C 31.284 308.803,31.600 309.348,31.600 309.659 C 31.600 309.969,31.960 310.483,32.400 310.800 C 32.840 311.117,33.200 311.657,33.200 312.000 C 33.200 312.343,33.560 312.883,34.000 313.200 C 34.440 313.517,34.800 314.025,34.800 314.328 C 34.800 314.631,35.340 315.383,36.000 316.000 C 36.660 316.617,37.200 317.369,37.200 317.672 C 37.200 317.975,37.560 318.483,38.000 318.800 C 38.440 319.117,38.800 319.625,38.800 319.928 C 38.800 320.231,39.340 320.983,40.000 321.600 C 40.660 322.217,41.200 322.881,41.200 323.077 C 41.200 323.273,41.830 324.101,42.600 324.918 C 43.370 325.734,44.000 326.591,44.000 326.823 C 44.000 327.055,45.080 328.304,46.400 329.600 C 47.720 330.896,48.800 332.151,48.800 332.391 C 48.800 332.630,50.825 334.806,53.300 337.226 C 58.703 342.510,57.490 341.297,62.774 346.700 C 65.194 349.175,67.372 351.200,67.613 351.200 C 67.855 351.200,68.929 352.100,70.000 353.200 C 71.071 354.300,72.146 355.200,72.387 355.200 C 72.629 355.200,73.457 355.830,74.227 356.600 C 74.997 357.370,75.779 358.000,75.965 358.000 C 76.151 358.000,77.045 358.720,77.952 359.600 C 78.859 360.480,79.831 361.200,80.112 361.200 C 80.393 361.200,80.883 361.560,81.200 362.000 C 81.517 362.440,82.025 362.800,82.328 362.800 C 82.631 362.800,83.383 363.340,84.000 364.000 C 84.617 364.660,85.369 365.200,85.672 365.200 C 85.975 365.200,86.483 365.560,86.800 366.000 C 87.117 366.440,87.657 366.800,88.000 366.800 C 88.343 366.800,88.883 367.160,89.200 367.600 C 89.517 368.040,90.031 368.400,90.341 368.400 C 90.652 368.400,91.197 368.716,91.553 369.103 C 91.909 369.489,92.740 370.074,93.400 370.403 C 94.060 370.731,94.949 371.315,95.375 371.700 C 95.802 372.085,96.387 372.400,96.675 372.400 C 96.964 372.400,97.200 372.580,97.200 372.800 C 97.200 373.020,97.560 373.200,98.000 373.200 C 98.440 373.200,98.800 373.347,98.800 373.526 C 98.800 373.924,101.401 375.200,102.214 375.200 C 102.536 375.200,102.800 375.380,102.800 375.600 C 102.800 375.820,103.160 376.000,103.600 376.000 C 104.040 376.000,104.400 376.180,104.400 376.400 C 104.400 376.620,104.720 376.800,105.112 376.800 C 105.503 376.800,106.083 377.160,106.400 377.600 C 106.717 378.040,107.297 378.400,107.688 378.400 C 108.080 378.400,108.400 378.546,108.400 378.725 C 108.400 378.904,109.030 379.298,109.800 379.600 C 110.570 379.902,111.200 380.296,111.200 380.475 C 111.200 380.654,111.560 380.800,112.000 380.800 C 112.440 380.800,112.800 380.980,112.800 381.200 C 112.800 381.420,113.340 381.600,114.000 381.600 C 114.660 381.600,115.200 381.780,115.200 382.000 C 115.200 382.220,115.560 382.400,116.000 382.400 C 116.440 382.400,116.800 382.580,116.800 382.800 C 116.800 383.020,117.160 383.200,117.600 383.200 C 118.040 383.200,118.400 383.380,118.400 383.600 C 118.400 383.820,118.760 384.000,119.200 384.000 C 119.640 384.000,120.000 384.180,120.000 384.400 C 120.000 384.620,120.540 384.800,121.200 384.800 C 121.860 384.800,122.400 384.980,122.400 385.200 C 122.400 385.420,122.760 385.600,123.200 385.600 C 123.640 385.600,124.000 385.780,124.000 386.000 C 124.000 386.220,124.360 386.400,124.800 386.400 C 125.240 386.400,125.600 386.580,125.600 386.800 C 125.600 387.020,126.039 387.200,126.576 387.200 C 127.113 387.200,127.664 387.380,127.800 387.600 C 127.936 387.820,128.487 388.000,129.024 388.000 C 129.561 388.000,130.000 388.180,130.000 388.400 C 130.000 388.620,130.349 388.800,130.776 388.800 C 131.203 388.800,131.664 388.980,131.800 389.200 C 131.936 389.420,132.476 389.600,133.000 389.600 C 133.524 389.600,134.064 389.780,134.200 390.000 C 134.336 390.220,134.851 390.400,135.344 390.400 C 135.837 390.400,136.419 390.579,136.638 390.798 C 136.856 391.016,138.152 391.312,139.518 391.454 C 140.883 391.597,142.000 391.868,142.000 392.057 C 142.000 392.246,142.450 392.400,143.000 392.400 C 143.550 392.400,144.000 392.580,144.000 392.800 C 144.000 393.020,144.720 393.200,145.600 393.200 C 146.480 393.200,147.200 393.380,147.200 393.600 C 147.200 393.820,147.740 394.000,148.400 394.000 C 149.060 394.000,149.600 394.180,149.600 394.400 C 149.600 394.620,150.320 394.800,151.200 394.800 C 152.080 394.800,152.800 394.980,152.800 395.200 C 152.800 395.420,153.700 395.600,154.800 395.600 C 155.900 395.600,156.800 395.780,156.800 396.000 C 156.800 396.220,157.610 396.400,158.600 396.400 C 159.590 396.400,160.400 396.580,160.400 396.800 C 160.400 397.020,161.300 397.200,162.400 397.200 C 163.500 397.200,164.400 397.380,164.400 397.600 C 164.400 397.822,165.467 398.000,166.800 398.000 C 168.133 398.000,169.200 398.178,169.200 398.400 C 169.200 398.628,170.389 398.800,171.967 398.800 C 173.824 398.800,174.788 398.964,174.900 399.300 C 175.144 400.032,224.856 400.032,225.100 399.300 C 225.212 398.964,226.176 398.800,228.033 398.800 C 229.611 398.800,230.800 398.628,230.800 398.400 C 230.800 398.178,231.867 398.000,233.200 398.000 C 234.533 398.000,235.600 397.822,235.600 397.600 C 235.600 397.380,236.579 397.200,237.776 397.200 C 238.973 397.200,240.064 397.020,240.200 396.800 C 240.336 396.580,241.067 396.400,241.824 396.400 C 242.581 396.400,243.200 396.220,243.200 396.000 C 243.200 395.780,244.100 395.600,245.200 395.600 C 246.300 395.600,247.200 395.420,247.200 395.200 C 247.200 394.980,247.920 394.800,248.800 394.800 C 249.680 394.800,250.400 394.620,250.400 394.400 C 250.400 394.180,251.120 394.000,252.000 394.000 C 252.880 394.000,253.600 393.820,253.600 393.600 C 253.600 393.380,254.140 393.200,254.800 393.200 C 255.460 393.200,256.000 393.020,256.000 392.800 C 256.000 392.580,256.630 392.400,257.400 392.400 C 258.170 392.400,258.800 392.220,258.800 392.000 C 258.800 391.780,259.229 391.600,259.754 391.600 C 260.778 391.600,264.553 390.560,265.695 389.963 C 266.077 389.763,266.741 389.600,267.171 389.600 C 267.601 389.600,268.064 389.420,268.200 389.200 C 268.336 388.980,268.797 388.800,269.224 388.800 C 269.651 388.800,270.000 388.620,270.000 388.400 C 270.000 388.180,270.439 388.000,270.976 388.000 C 271.513 388.000,272.064 387.820,272.200 387.600 C 272.336 387.380,272.887 387.200,273.424 387.200 C 273.961 387.200,274.400 387.020,274.400 386.800 C 274.400 386.580,274.760 386.400,275.200 386.400 C 275.640 386.400,276.000 386.220,276.000 386.000 C 276.000 385.780,276.540 385.600,277.200 385.600 C 277.860 385.600,278.400 385.420,278.400 385.200 C 278.400 384.980,278.760 384.800,279.200 384.800 C 279.640 384.800,280.000 384.620,280.000 384.400 C 280.000 384.180,280.360 384.000,280.800 384.000 C 281.240 384.000,281.600 383.820,281.600 383.600 C 281.600 383.380,281.960 383.200,282.400 383.200 C 282.840 383.200,283.200 383.020,283.200 382.800 C 283.200 382.580,283.740 382.400,284.400 382.400 C 285.060 382.400,285.600 382.220,285.600 382.000 C 285.600 381.780,285.960 381.600,286.400 381.600 C 286.840 381.600,287.201 381.465,287.201 381.300 C 287.202 381.135,288.192 380.550,289.400 380.000 C 290.608 379.450,291.598 378.865,291.599 378.700 C 291.599 378.535,291.960 378.400,292.400 378.400 C 292.840 378.400,293.200 378.220,293.200 378.000 C 293.200 377.780,293.520 377.600,293.912 377.600 C 294.303 377.600,294.883 377.240,295.200 376.800 C 295.517 376.360,296.097 376.000,296.488 376.000 C 296.880 376.000,297.200 375.820,297.200 375.600 C 297.200 375.380,297.464 375.200,297.786 375.200 C 298.599 375.200,301.200 373.924,301.200 373.526 C 301.200 373.347,301.560 373.200,302.000 373.200 C 302.440 373.200,302.800 373.020,302.800 372.800 C 302.800 372.580,303.036 372.400,303.325 372.400 C 303.613 372.400,304.198 372.085,304.625 371.700 C 305.051 371.315,305.940 370.731,306.600 370.403 C 307.260 370.074,308.091 369.489,308.447 369.103 C 308.803 368.716,309.348 368.400,309.659 368.400 C 309.969 368.400,310.483 368.040,310.800 367.600 C 311.117 367.160,311.657 366.800,312.000 366.800 C 312.343 366.800,312.883 366.440,313.200 366.000 C 313.517 365.560,314.025 365.200,314.328 365.200 C 314.631 365.200,315.383 364.660,316.000 364.000 C 316.617 363.340,317.369 362.800,317.672 362.800 C 317.975 362.800,318.483 362.440,318.800 362.000 C 319.117 361.560,319.625 361.200,319.928 361.200 C 320.231 361.200,320.983 360.660,321.600 360.000 C 322.217 359.340,322.881 358.800,323.077 358.800 C 323.273 358.800,324.101 358.170,324.918 357.400 C 325.734 356.630,326.591 356.000,326.823 356.000 C 327.055 356.000,328.304 354.920,329.600 353.600 C 330.896 352.280,332.151 351.200,332.391 351.200 C 332.630 351.200,334.806 349.175,337.226 346.700 C 342.510 341.297,341.297 342.510,346.700 337.226 C 349.175 334.806,351.200 332.628,351.200 332.387 C 351.200 332.145,352.100 331.071,353.200 330.000 C 354.300 328.929,355.200 327.854,355.200 327.613 C 355.200 327.371,355.830 326.543,356.600 325.773 C 357.370 325.003,358.000 324.221,358.000 324.035 C 358.000 323.849,358.720 322.955,359.600 322.048 C 360.480 321.141,361.200 320.169,361.200 319.888 C 361.200 319.607,361.560 319.117,362.000 318.800 C 362.440 318.483,362.800 317.975,362.800 317.672 C 362.800 317.369,363.340 316.617,364.000 316.000 C 364.660 315.383,365.200 314.631,365.200 314.328 C 365.200 314.025,365.560 313.517,366.000 313.200 C 366.440 312.883,366.800 312.343,366.800 312.000 C 366.800 311.657,367.160 311.117,367.600 310.800 C 368.040 310.483,368.400 309.969,368.400 309.659 C 368.400 309.348,368.716 308.803,369.103 308.447 C 369.489 308.091,370.074 307.260,370.403 306.600 C 370.731 305.940,371.315 305.051,371.700 304.625 C 372.085 304.198,372.400 303.613,372.400 303.325 C 372.400 303.036,372.580 302.800,372.800 302.800 C 373.020 302.800,373.200 302.440,373.200 302.000 C 373.200 301.560,373.347 301.200,373.526 301.200 C 373.924 301.200,375.200 298.599,375.200 297.786 C 375.200 297.464,375.380 297.200,375.600 297.200 C 375.820 297.200,376.000 296.840,376.000 296.400 C 376.000 295.960,376.180 295.600,376.400 295.600 C 376.620 295.600,376.800 295.280,376.800 294.888 C 376.800 294.497,377.160 293.917,377.600 293.600 C 378.040 293.283,378.400 292.703,378.400 292.312 C 378.400 291.920,378.546 291.600,378.725 291.600 C 378.904 291.600,379.298 290.970,379.600 290.200 C 379.902 289.430,380.296 288.800,380.475 288.800 C 380.654 288.800,380.800 288.440,380.800 288.000 C 380.800 287.560,380.980 287.200,381.200 287.200 C 381.420 287.200,381.600 286.660,381.600 286.000 C 381.600 285.340,381.780 284.800,382.000 284.800 C 382.220 284.800,382.400 284.440,382.400 284.000 C 382.400 283.560,382.580 283.200,382.800 283.200 C 383.020 283.200,383.200 282.840,383.200 282.400 C 383.200 281.960,383.380 281.600,383.600 281.600 C 383.820 281.600,384.000 281.240,384.000 280.800 C 384.000 280.360,384.180 280.000,384.400 280.000 C 384.620 280.000,384.800 279.460,384.800 278.800 C 384.800 278.140,384.980 277.600,385.200 277.600 C 385.420 277.600,385.600 277.240,385.600 276.800 C 385.600 276.360,385.780 276.000,386.000 276.000 C 386.220 276.000,386.400 275.640,386.400 275.200 C 386.400 274.760,386.580 274.400,386.800 274.400 C 387.020 274.400,387.200 273.961,387.200 273.424 C 387.200 272.887,387.380 272.336,387.600 272.200 C 387.820 272.064,388.000 271.513,388.000 270.976 C 388.000 270.439,388.180 270.000,388.400 270.000 C 388.620 270.000,388.800 269.651,388.800 269.224 C 388.800 268.797,388.980 268.336,389.200 268.200 C 389.420 268.064,389.600 267.524,389.600 267.000 C 389.600 266.476,389.780 265.936,390.000 265.800 C 390.220 265.664,390.400 265.149,390.400 264.656 C 390.400 264.163,390.579 263.581,390.798 263.362 C 391.016 263.144,391.312 261.848,391.454 260.482 C 391.597 259.117,391.868 258.000,392.057 258.000 C 392.246 258.000,392.400 257.550,392.400 257.000 C 392.400 256.450,392.580 256.000,392.800 256.000 C 393.020 256.000,393.200 255.280,393.200 254.400 C 393.200 253.520,393.380 252.800,393.600 252.800 C 393.820 252.800,394.000 252.260,394.000 251.600 C 394.000 250.940,394.180 250.400,394.400 250.400 C 394.620 250.400,394.800 249.680,394.800 248.800 C 394.800 247.920,394.980 247.200,395.200 247.200 C 395.420 247.200,395.600 246.300,395.600 245.200 C 395.600 244.100,395.780 243.200,396.000 243.200 C 396.220 243.200,396.400 242.390,396.400 241.400 C 396.400 240.410,396.580 239.600,396.800 239.600 C 397.020 239.600,397.200 238.700,397.200 237.600 C 397.200 236.500,397.380 235.600,397.600 235.600 C 397.822 235.600,398.000 234.533,398.000 233.200 C 398.000 231.867,398.178 230.800,398.400 230.800 C 398.628 230.800,398.800 229.611,398.800 228.033 C 398.800 226.176,398.964 225.212,399.300 225.100 C 399.693 224.969,399.800 219.591,399.800 200.000 C 399.800 180.409,399.693 175.031,399.300 174.900 C 398.964 174.788,398.800 173.824,398.800 171.967 C 398.800 170.389,398.628 169.200,398.400 169.200 C 398.178 169.200,398.000 168.133,398.000 166.800 C 398.000 165.467,397.822 164.400,397.600 164.400 C 397.380 164.400,397.200 163.421,397.200 162.224 C 397.200 161.027,397.020 159.936,396.800 159.800 C 396.580 159.664,396.400 158.933,396.400 158.176 C 396.400 157.419,396.220 156.800,396.000 156.800 C 395.780 156.800,395.600 155.900,395.600 154.800 C 395.600 153.700,395.420 152.800,395.200 152.800 C 394.980 152.800,394.800 152.080,394.800 151.200 C 394.800 150.320,394.620 149.600,394.400 149.600 C 394.180 149.600,394.000 148.880,394.000 148.000 C 394.000 147.120,393.820 146.400,393.600 146.400 C 393.380 146.400,393.200 145.860,393.200 145.200 C 393.200 144.540,393.020 144.000,392.800 144.000 C 392.580 144.000,392.400 143.370,392.400 142.600 C 392.400 141.830,392.220 141.200,392.000 141.200 C 391.780 141.200,391.600 140.771,391.600 140.246 C 391.600 139.222,390.560 135.447,389.963 134.305 C 389.763 133.923,389.600 133.259,389.600 132.829 C 389.600 132.399,389.420 131.936,389.200 131.800 C 388.980 131.664,388.800 131.203,388.800 130.776 C 388.800 130.349,388.620 130.000,388.400 130.000 C 388.180 130.000,388.000 129.561,388.000 129.024 C 388.000 128.487,387.820 127.936,387.600 127.800 C 387.380 127.664,387.200 127.113,387.200 126.576 C 387.200 126.039,387.020 125.600,386.800 125.600 C 386.580 125.600,386.400 125.240,386.400 124.800 C 386.400 124.360,386.220 124.000,386.000 124.000 C 385.780 124.000,385.600 123.460,385.600 122.800 C 385.600 122.140,385.420 121.600,385.200 121.600 C 384.980 121.600,384.800 121.240,384.800 120.800 C 384.800 120.360,384.620 120.000,384.400 120.000 C 384.180 120.000,384.000 119.640,384.000 119.200 C 384.000 118.760,383.820 118.400,383.600 118.400 C 383.380 118.400,383.200 118.040,383.200 117.600 C 383.200 117.160,383.020 116.800,382.800 116.800 C 382.580 116.800,382.400 116.260,382.400 115.600 C 382.400 114.940,382.220 114.400,382.000 114.400 C 381.780 114.400,381.600 114.040,381.600 113.600 C 381.600 113.160,381.465 112.799,381.300 112.799 C 381.135 112.798,380.550 111.808,380.000 110.600 C 379.450 109.392,378.865 108.402,378.700 108.401 C 378.535 108.401,378.400 108.040,378.400 107.600 C 378.400 107.160,378.220 106.800,378.000 106.800 C 377.780 106.800,377.600 106.480,377.600 106.088 C 377.600 105.697,377.240 105.117,376.800 104.800 C 376.360 104.483,376.000 103.903,376.000 103.512 C 376.000 103.120,375.820 102.800,375.600 102.800 C 375.380 102.800,375.200 102.536,375.200 102.214 C 375.200 101.401,373.924 98.800,373.526 98.800 C 373.347 98.800,373.200 98.440,373.200 98.000 C 373.200 97.560,373.020 97.200,372.800 97.200 C 372.580 97.200,372.400 96.964,372.400 96.675 C 372.400 96.387,372.085 95.802,371.700 95.375 C 371.315 94.949,370.731 94.060,370.403 93.400 C 370.074 92.740,369.489 91.909,369.103 91.553 C 368.716 91.197,368.400 90.652,368.400 90.341 C 368.400 90.031,368.040 89.517,367.600 89.200 C 367.160 88.883,366.800 88.343,366.800 88.000 C 366.800 87.657,366.440 87.117,366.000 86.800 C 365.560 86.483,365.200 85.975,365.200 85.672 C 365.200 85.369,364.660 84.617,364.000 84.000 C 363.340 83.383,362.800 82.631,362.800 82.328 C 362.800 82.025,362.440 81.517,362.000 81.200 C 361.560 80.883,361.200 80.375,361.200 80.072 C 361.200 79.769,360.660 79.017,360.000 78.400 C 359.340 77.783,358.800 77.119,358.800 76.923 C 358.800 76.727,358.170 75.899,357.400 75.082 C 356.630 74.266,356.000 73.409,356.000 73.177 C 356.000 72.945,354.920 71.696,353.600 70.400 C 352.280 69.104,351.200 67.849,351.200 67.609 C 351.200 67.370,349.175 65.194,346.700 62.774 C 341.297 57.490,342.510 58.703,337.226 53.300 C 334.806 50.825,332.628 48.800,332.387 48.800 C 332.145 48.800,331.071 47.900,330.000 46.800 C 328.929 45.700,327.854 44.800,327.613 44.800 C 327.371 44.800,326.543 44.170,325.773 43.400 C 325.003 42.630,324.221 42.000,324.035 42.000 C 323.849 42.000,322.955 41.280,322.048 40.400 C 321.141 39.520,320.169 38.800,319.888 38.800 C 319.607 38.800,319.117 38.440,318.800 38.000 C 318.483 37.560,317.975 37.200,317.672 37.200 C 317.369 37.200,316.617 36.660,316.000 36.000 C 315.383 35.340,314.631 34.800,314.328 34.800 C 314.025 34.800,313.517 34.440,313.200 34.000 C 312.883 33.560,312.343 33.200,312.000 33.200 C 311.657 33.200,311.117 32.840,310.800 32.400 C 310.483 31.960,309.969 31.600,309.659 31.600 C 309.348 31.600,308.803 31.284,308.447 30.897 C 308.091 30.511,307.260 29.926,306.600 29.597 C 305.940 29.269,305.051 28.685,304.625 28.300 C 304.198 27.915,303.613 27.600,303.325 27.600 C 303.036 27.600,302.800 27.420,302.800 27.200 C 302.800 26.980,302.440 26.800,302.000 26.800 C 301.560 26.800,301.200 26.653,301.200 26.474 C 301.200 26.076,298.599 24.800,297.786 24.800 C 297.464 24.800,297.200 24.620,297.200 24.400 C 297.200 24.180,296.840 24.000,296.400 24.000 C 295.960 24.000,295.600 23.820,295.600 23.600 C 295.600 23.380,295.280 23.200,294.888 23.200 C 294.497 23.200,293.917 22.840,293.600 22.400 C 293.283 21.960,292.703 21.600,292.312 21.600 C 291.920 21.600,291.600 21.454,291.600 21.275 C 291.600 21.096,290.970 20.702,290.200 20.400 C 289.430 20.098,288.800 19.704,288.800 19.525 C 288.800 19.346,288.440 19.200,288.000 19.200 C 287.560 19.200,287.200 19.020,287.200 18.800 C 287.200 18.580,286.660 18.400,286.000 18.400 C 285.340 18.400,284.800 18.220,284.800 18.000 C 284.800 17.780,284.440 17.600,284.000 17.600 C 283.560 17.600,283.200 17.420,283.200 17.200 C 283.200 16.980,282.840 16.800,282.400 16.800 C 281.960 16.800,281.600 16.620,281.600 16.400 C 281.600 16.180,281.240 16.000,280.800 16.000 C 280.360 16.000,280.000 15.820,280.000 15.600 C 280.000 15.380,279.460 15.200,278.800 15.200 C 278.140 15.200,277.600 15.020,277.600 14.800 C 277.600 14.580,277.240 14.400,276.800 14.400 C 276.360 14.400,276.000 14.220,276.000 14.000 C 276.000 13.780,275.640 13.600,275.200 13.600 C 274.760 13.600,274.400 13.420,274.400 13.200 C 274.400 12.980,273.961 12.800,273.424 12.800 C 272.887 12.800,272.336 12.620,272.200 12.400 C 272.064 12.180,271.513 12.000,270.976 12.000 C 270.439 12.000,270.000 11.820,270.000 11.600 C 270.000 11.380,269.651 11.200,269.224 11.200 C 268.797 11.200,268.336 11.020,268.200 10.800 C 268.064 10.580,267.524 10.400,267.000 10.400 C 266.476 10.400,265.936 10.220,265.800 10.000 C 265.664 9.780,265.149 9.600,264.656 9.600 C 264.163 9.600,263.581 9.421,263.362 9.202 C 263.144 8.984,261.848 8.688,260.482 8.546 C 259.117 8.403,258.000 8.132,258.000 7.943 C 258.000 7.754,257.550 7.600,257.000 7.600 C 256.450 7.600,256.000 7.420,256.000 7.200 C 256.000 6.980,255.280 6.800,254.400 6.800 C 253.520 6.800,252.800 6.620,252.800 6.400 C 252.800 6.180,252.260 6.000,251.600 6.000 C 250.940 6.000,250.400 5.820,250.400 5.600 C 250.400 5.380,249.680 5.200,248.800 5.200 C 247.920 5.200,247.200 5.020,247.200 4.800 C 247.200 4.580,246.300 4.400,245.200 4.400 C 244.100 4.400,243.200 4.220,243.200 4.000 C 243.200 3.780,242.390 3.600,241.400 3.600 C 240.410 3.600,239.600 3.420,239.600 3.200 C 239.600 2.980,238.700 2.800,237.600 2.800 C 236.500 2.800,235.600 2.620,235.600 2.400 C 235.600 2.178,234.533 2.000,233.200 2.000 C 231.867 2.000,230.800 1.822,230.800 1.600 C 230.800 1.372,229.611 1.200,228.033 1.200 C 226.238 1.200,225.211 1.032,225.107 0.720 C 224.948 0.244,188.291 -0.109,178.700 0.273 M195.504 123.345 L 195.608 142.890 196.904 142.623 C 205.043 140.947,219.004 141.011,227.800 142.765 C 236.595 144.518,239.007 145.326,246.766 149.120 C 256.574 153.916,265.393 162.944,269.933 172.836 C 272.472 178.369,272.658 178.844,273.633 182.300 C 273.835 183.015,274.194 184.275,274.430 185.100 C 277.909 197.232,277.922 218.768,274.457 230.800 C 274.235 231.570,273.937 232.650,273.794 233.200 C 273.650 233.750,273.386 234.560,273.207 235.000 C 273.028 235.440,272.655 236.430,272.380 237.200 C 269.698 244.699,263.911 253.408,258.408 258.230 C 257.422 259.093,256.252 260.133,255.808 260.541 C 252.994 263.122,245.066 267.591,239.800 269.565 C 238.480 270.059,237.087 270.630,236.705 270.832 C 236.323 271.034,235.588 271.200,235.072 271.200 C 234.556 271.200,234.005 271.329,233.847 271.486 C 233.451 271.883,230.018 272.761,228.780 272.782 C 228.219 272.792,227.589 272.963,227.380 273.163 C 227.171 273.363,226.100 273.627,225.000 273.751 C 223.900 273.874,221.290 274.194,219.200 274.462 C 216.496 274.808,205.652 274.956,181.600 274.974 L 147.800 275.000 147.699 189.842 C 147.625 126.935,147.716 104.542,148.051 104.139 C 148.425 103.688,152.549 103.611,171.952 103.697 L 195.400 103.800 195.504 123.345 M197.600 184.336 L 195.800 184.600 195.697 209.100 L 195.594 233.600 201.162 233.600 C 213.243 233.600,221.321 229.830,224.744 222.595 C 225.263 221.498,225.848 220.287,226.044 219.905 C 226.240 219.523,226.400 218.859,226.400 218.429 C 226.400 217.999,226.557 217.550,226.750 217.431 C 228.031 216.639,228.025 200.157,226.743 199.365 C 226.554 199.248,226.400 198.829,226.400 198.433 C 226.400 195.963,221.871 189.828,218.407 187.605 C 213.820 184.661,204.923 183.264,197.600 184.336 " stroke="none" fill="#f41414" fill-rule="evenodd"></path><path id="path2" d="M148.243 104.633 C 147.892 105.546,147.955 273.710,148.306 274.262 C 148.468 274.516,148.600 236.446,148.600 189.662 L 148.600 104.600 172.000 104.395 L 195.400 104.190 171.943 104.095 C 150.866 104.010,148.461 104.064,148.243 104.633 M203.600 142.000 C 201.411 142.268,201.409 142.270,203.200 142.300 C 204.190 142.316,205.900 142.190,207.000 142.018 C 209.672 141.602,206.965 141.588,203.600 142.000 M215.800 141.993 C 218.362 142.335,222.644 142.501,222.367 142.247 C 222.275 142.164,220.220 142.000,217.800 141.884 C 214.675 141.734,214.096 141.765,215.800 141.993 M197.600 142.800 C 196.250 143.084,196.243 143.095,197.400 143.100 C 198.060 143.103,199.140 142.968,199.800 142.800 C 201.460 142.378,199.607 142.378,197.600 142.800 M224.400 142.780 C 225.399 143.120,227.882 143.332,227.567 143.051 C 227.475 142.969,226.500 142.799,225.400 142.672 C 224.051 142.516,223.726 142.551,224.400 142.780 M229.000 143.581 C 229.768 143.929,231.910 144.156,231.567 143.853 C 231.475 143.772,230.680 143.596,229.800 143.462 C 228.685 143.293,228.442 143.329,229.000 143.581 M235.200 144.946 C 235.200 145.133,238.989 146.408,239.475 146.384 C 239.946 146.362,237.592 145.378,236.300 145.057 C 235.695 144.907,235.200 144.857,235.200 144.946 M252.144 152.709 C 252.460 153.221,254.800 154.953,254.800 154.675 C 254.800 154.576,254.139 153.991,253.332 153.375 C 252.524 152.759,251.989 152.459,252.144 152.709 M259.392 159.142 C 261.367 161.154,263.044 162.800,263.119 162.800 C 263.510 162.800,258.948 157.937,257.494 156.804 C 256.551 156.068,257.391 157.104,259.392 159.142 M263.940 164.316 C 264.433 165.009,265.044 165.704,265.297 165.860 C 265.550 166.017,265.354 165.577,264.860 164.884 C 264.367 164.191,263.756 163.496,263.503 163.340 C 263.250 163.183,263.446 163.623,263.940 164.316 M266.430 167.800 C 266.924 168.680,267.500 169.580,267.710 169.800 C 268.309 170.428,266.939 167.894,266.196 167.000 C 265.830 166.560,265.935 166.920,266.430 167.800 M273.206 183.033 C 273.209 183.455,273.395 184.070,273.618 184.400 C 273.915 184.838,273.952 184.676,273.756 183.800 C 273.427 182.329,273.198 182.010,273.206 183.033 M201.900 183.493 C 202.835 183.577,204.365 183.577,205.300 183.493 C 206.235 183.409,205.470 183.340,203.600 183.340 C 201.730 183.340,200.965 183.409,201.900 183.493 M196.100 184.012 C 194.824 184.525,194.980 184.829,196.300 184.402 C 196.905 184.207,197.760 183.967,198.200 183.870 C 198.828 183.731,198.785 183.688,198.000 183.672 C 197.450 183.660,196.595 183.813,196.100 184.012 M209.600 184.000 C 210.150 184.176,210.960 184.320,211.400 184.320 C 212.033 184.320,211.992 184.254,211.200 184.000 C 210.650 183.824,209.840 183.680,209.400 183.680 C 208.767 183.680,208.808 183.746,209.600 184.000 M214.800 185.280 C 215.197 185.635,219.200 187.604,219.200 187.443 C 219.200 187.180,216.588 185.713,215.549 185.393 C 215.027 185.232,214.690 185.181,214.800 185.280 M274.006 186.033 C 274.009 186.565,274.189 187.270,274.406 187.600 C 274.682 188.022,274.723 187.785,274.542 186.800 C 274.225 185.075,273.998 184.749,274.006 186.033 M219.641 188.100 C 219.737 188.155,220.712 189.010,221.807 190.000 L 223.800 191.800 222.017 189.900 C 221.036 188.855,220.061 188.000,219.850 188.000 C 219.639 188.000,219.545 188.045,219.641 188.100 M274.875 189.800 C 274.865 190.460,275.011 191.360,275.200 191.800 L 275.544 192.600 275.525 191.800 C 275.514 191.360,275.368 190.460,275.200 189.800 L 274.895 188.600 274.875 189.800 M225.508 195.334 C 226.109 196.528,226.674 197.437,226.764 197.355 C 226.968 197.169,225.169 193.628,224.734 193.359 C 224.559 193.251,224.908 194.140,225.508 195.334 M275.640 194.833 C 275.662 195.805,275.831 197.050,276.016 197.600 C 276.226 198.227,276.266 197.630,276.123 196.000 C 275.855 192.956,275.583 192.298,275.640 194.833 M227.058 199.200 C 227.375 200.925,227.602 201.251,227.594 199.967 C 227.591 199.435,227.411 198.730,227.194 198.400 C 226.918 197.978,226.877 198.215,227.058 199.200 M276.567 208.200 C 276.567 212.380,276.626 214.036,276.698 211.879 C 276.771 209.723,276.770 206.303,276.698 204.279 C 276.625 202.256,276.566 204.020,276.567 208.200 M228.159 208.400 C 228.159 211.590,228.221 212.895,228.297 211.300 C 228.373 209.705,228.373 207.095,228.297 205.500 C 228.221 203.905,228.159 205.210,228.159 208.400 M227.254 216.667 C 227.225 217.144,227.096 217.864,226.970 218.267 C 226.752 218.961,226.764 218.962,227.196 218.288 C 227.447 217.897,227.575 217.177,227.481 216.688 C 227.309 215.801,227.309 215.801,227.254 216.667 M275.869 219.156 C 275.721 219.895,275.621 221.063,275.647 221.750 C 275.679 222.612,275.805 222.325,276.055 220.823 C 276.453 218.421,276.297 217.017,275.869 219.156 M224.253 224.100 L 223.533 225.400 224.358 224.400 C 225.089 223.513,225.414 222.800,225.086 222.800 C 225.024 222.800,224.649 223.385,224.253 224.100 M275.000 225.200 C 274.846 226.110,274.804 226.938,274.907 227.040 C 275.010 227.143,275.213 226.477,275.360 225.560 C 275.507 224.643,275.548 223.815,275.453 223.720 C 275.358 223.624,275.154 224.290,275.000 225.200 M220.400 228.482 C 219.190 229.611,218.560 230.338,219.000 230.099 C 219.769 229.680,223.153 226.384,222.781 226.415 C 222.682 226.424,221.610 227.354,220.400 228.482 M274.249 228.615 C 274.112 228.973,274.018 229.656,274.041 230.133 C 274.067 230.681,274.203 230.486,274.410 229.603 C 274.760 228.116,274.665 227.533,274.249 228.615 M215.400 231.615 C 214.080 232.245,213.231 232.769,213.513 232.780 C 214.088 232.802,218.000 230.895,218.000 230.593 C 218.000 230.353,218.235 230.261,215.400 231.615 M211.000 233.200 C 210.496 233.417,210.422 233.544,210.800 233.544 C 211.130 233.544,211.760 233.389,212.200 233.200 C 212.704 232.983,212.778 232.856,212.400 232.856 C 212.070 232.856,211.440 233.011,211.000 233.200 M195.465 234.100 C 195.686 234.464,206.116 234.413,207.800 234.039 C 208.460 233.893,205.914 233.779,202.141 233.786 C 198.369 233.794,195.364 233.935,195.465 234.100 M272.476 234.862 C 272.266 235.598,271.716 237.145,271.253 238.300 C 270.790 239.455,270.497 240.400,270.600 240.400 C 271.020 240.400,273.350 234.017,273.043 233.709 C 272.941 233.608,272.686 234.127,272.476 234.862 M269.478 242.205 C 269.112 242.972,268.895 243.600,268.996 243.600 C 269.270 243.600,270.484 241.151,270.301 240.968 C 270.214 240.881,269.844 241.438,269.478 242.205 M267.053 246.900 L 266.333 248.200 267.158 247.200 C 267.889 246.313,268.214 245.600,267.886 245.600 C 267.824 245.600,267.449 246.185,267.053 246.900 M264.744 250.300 C 263.475 251.832,263.019 252.542,263.481 252.265 C 263.993 251.958,265.769 249.600,265.489 249.600 C 265.398 249.600,265.063 249.915,264.744 250.300 M259.302 256.329 C 257.487 258.203,256.057 259.790,256.122 259.856 C 256.188 259.921,257.848 258.361,259.812 256.387 C 261.776 254.414,263.207 252.828,262.992 252.861 C 262.776 252.895,261.116 254.455,259.302 256.329 M253.985 261.229 L 252.600 262.458 254.100 261.381 C 255.426 260.430,255.857 260.000,255.485 260.000 C 255.422 260.000,254.747 260.553,253.985 261.229 M248.400 264.800 C 247.850 265.230,247.580 265.582,247.800 265.582 C 248.020 265.582,248.650 265.230,249.200 264.800 C 249.750 264.370,250.020 264.018,249.800 264.018 C 249.580 264.018,248.950 264.370,248.400 264.800 M234.400 270.800 C 233.576 271.064,233.541 271.126,234.200 271.154 C 234.640 271.173,235.270 271.013,235.600 270.800 C 236.301 270.347,235.814 270.347,234.400 270.800 M231.400 271.600 C 230.293 271.882,230.277 271.909,231.200 271.947 C 231.750 271.969,232.470 271.813,232.800 271.600 C 233.481 271.160,233.129 271.160,231.400 271.600 M226.000 272.800 C 224.656 273.231,226.108 273.231,227.800 272.800 C 228.878 272.526,228.898 272.494,228.000 272.487 C 227.450 272.483,226.550 272.624,226.000 272.800 M221.200 273.613 C 220.554 273.829,220.980 273.866,222.400 273.719 C 223.610 273.594,224.675 273.426,224.767 273.346 C 225.087 273.065,222.191 273.283,221.200 273.613 M212.200 274.409 C 211.081 274.566,212.049 274.604,214.400 274.497 C 216.710 274.391,218.675 274.236,218.767 274.153 C 219.024 273.917,214.442 274.097,212.200 274.409 " stroke="none" fill="#fc8c8c" fill-rule="evenodd"></path><path id="path3" d="" stroke="none" fill="#fc7c7c" fill-rule="evenodd"></path><path id="path4" d="M148.051 104.139 C 147.716 104.542,147.625 126.935,147.699 189.842 L 147.800 275.000 181.135 275.102 C 199.470 275.159,214.996 275.069,215.638 274.902 C 216.281 274.736,201.370 274.600,182.503 274.600 L 148.200 274.600 148.091 190.200 C 148.031 143.780,148.079 105.395,148.198 104.900 L 148.415 104.000 171.808 104.000 L 195.200 104.000 195.200 123.376 C 195.200 134.033,195.335 142.836,195.500 142.938 C 195.665 143.040,195.710 134.276,195.600 123.462 L 195.400 103.800 171.952 103.697 C 152.549 103.611,148.425 103.688,148.051 104.139 M203.919 141.528 C 203.544 141.678,207.217 141.800,212.081 141.800 C 216.945 141.800,220.222 141.675,219.362 141.523 C 217.352 141.167,204.814 141.171,203.919 141.528 M198.000 142.395 C 197.591 142.655,197.910 142.699,199.000 142.532 C 200.977 142.229,201.314 141.998,199.767 142.006 C 199.125 142.009,198.330 142.184,198.000 142.395 M223.233 142.143 C 223.325 142.222,224.120 142.397,225.000 142.532 C 226.090 142.699,226.409 142.655,226.000 142.395 C 225.453 142.046,222.845 141.809,223.233 142.143 M248.433 150.141 C 249.071 150.683,253.200 153.150,253.200 152.990 C 253.200 152.740,248.942 150.000,248.553 150.000 C 248.395 150.000,248.342 150.064,248.433 150.141 M256.200 155.460 C 259.270 158.445,261.990 160.756,260.200 158.858 C 259.100 157.691,257.660 156.362,257.000 155.904 C 256.340 155.445,255.980 155.246,256.200 155.460 M265.855 166.400 C 266.880 167.940,267.792 169.200,267.882 169.200 C 268.095 169.200,267.798 168.701,265.915 165.900 C 265.066 164.635,264.285 163.600,264.182 163.600 C 264.078 163.600,264.831 164.860,265.855 166.400 M268.600 170.800 C 268.941 171.460,269.311 172.000,269.421 172.000 C 269.531 172.000,269.341 171.460,269.000 170.800 C 268.659 170.140,268.289 169.600,268.179 169.600 C 268.069 169.600,268.259 170.140,268.600 170.800 M198.200 183.971 C 197.540 184.123,199.340 184.180,202.200 184.099 C 208.923 183.908,209.878 183.693,204.000 183.694 C 201.470 183.694,198.860 183.819,198.200 183.971 M195.384 184.900 C 195.279 185.175,195.239 196.200,195.296 209.400 L 195.400 233.400 195.600 208.900 C 195.710 195.425,195.749 184.400,195.687 184.400 C 195.626 184.400,195.489 184.625,195.384 184.900 M274.644 187.000 C 274.973 188.471,275.202 188.790,275.194 187.767 C 275.191 187.345,275.005 186.730,274.782 186.400 C 274.485 185.962,274.448 186.124,274.644 187.000 M221.400 190.000 C 222.259 190.880,223.052 191.600,223.162 191.600 C 223.272 191.600,222.659 190.880,221.800 190.000 C 220.941 189.120,220.148 188.400,220.038 188.400 C 219.928 188.400,220.541 189.120,221.400 190.000 M275.246 190.000 C 275.265 190.330,275.424 191.050,275.600 191.600 L 275.920 192.600 275.954 191.600 C 275.973 191.050,275.813 190.330,275.600 190.000 C 275.255 189.467,275.216 189.467,275.246 190.000 M276.294 196.800 C 276.414 198.230,276.577 199.475,276.656 199.567 C 276.935 199.889,276.716 196.188,276.398 195.200 C 276.205 194.600,276.163 195.240,276.294 196.800 M227.280 201.800 C 227.280 202.240,227.424 203.050,227.600 203.600 C 227.854 204.392,227.920 204.433,227.920 203.800 C 227.920 203.360,227.776 202.550,227.600 202.000 C 227.346 201.208,227.280 201.167,227.280 201.800 M276.957 208.400 C 276.957 211.370,277.020 212.585,277.097 211.100 C 277.174 209.615,277.174 207.185,277.097 205.700 C 277.020 204.215,276.957 205.430,276.957 208.400 M227.400 213.600 C 227.248 214.291,227.214 214.947,227.324 215.057 C 227.434 215.167,227.648 214.691,227.800 214.000 C 227.952 213.309,227.986 212.653,227.876 212.543 C 227.766 212.433,227.552 212.909,227.400 213.600 M276.464 218.200 C 276.423 219.080,276.296 220.250,276.183 220.800 L 275.977 221.800 276.408 220.814 C 276.644 220.272,276.771 219.102,276.689 218.214 L 276.540 216.600 276.464 218.200 M275.660 224.067 C 275.627 224.654,275.496 225.464,275.370 225.867 C 275.152 226.560,275.165 226.561,275.595 225.890 C 275.846 225.499,275.977 224.689,275.886 224.090 L 275.720 223.000 275.660 224.067 M221.225 227.369 L 219.850 229.000 221.405 227.513 C 222.260 226.696,222.879 225.962,222.780 225.883 C 222.681 225.803,221.981 226.472,221.225 227.369 M274.846 228.067 C 274.821 228.434,274.696 229.064,274.570 229.467 C 274.352 230.162,274.363 230.163,274.797 229.487 C 275.048 229.096,275.173 228.466,275.073 228.087 C 274.911 227.468,274.888 227.466,274.846 228.067 M208.800 233.200 C 207.433 233.488,207.428 233.495,208.600 233.519 C 209.260 233.533,210.160 233.389,210.600 233.200 C 211.562 232.787,210.764 232.787,208.800 233.200 M197.916 233.897 C 199.299 233.975,201.459 233.974,202.716 233.895 C 203.972 233.816,202.840 233.752,200.200 233.753 C 197.560 233.753,196.532 233.818,197.916 233.897 M269.478 243.005 C 269.112 243.772,268.895 244.400,268.996 244.400 C 269.270 244.400,270.484 241.951,270.301 241.768 C 270.214 241.681,269.844 242.238,269.478 243.005 M265.271 250.100 C 264.317 251.518,264.067 252.050,264.694 251.330 C 265.786 250.077,267.383 247.600,267.099 247.600 C 267.019 247.600,266.196 248.725,265.271 250.100 M261.420 254.820 C 260.368 255.931,259.577 256.910,259.661 256.995 C 259.746 257.080,260.678 256.170,261.733 254.975 C 264.145 252.239,263.953 252.145,261.420 254.820 M254.000 261.649 C 252.606 262.871,252.605 262.872,253.888 262.019 C 254.596 261.548,255.282 260.991,255.412 260.781 C 255.797 260.157,255.477 260.354,254.000 261.649 M249.700 264.446 C 248.337 265.319,247.895 265.906,249.100 265.243 C 250.018 264.739,251.456 263.627,251.200 263.619 C 251.090 263.616,250.415 263.988,249.700 264.446 M229.800 272.400 C 229.296 272.617,229.222 272.744,229.600 272.744 C 229.930 272.744,230.560 272.589,231.000 272.400 C 231.504 272.183,231.578 272.056,231.200 272.056 C 230.870 272.056,230.240 272.211,229.800 272.400 M226.000 273.200 L 225.000 273.520 226.076 273.560 C 226.668 273.582,227.264 273.420,227.400 273.200 C 227.681 272.745,227.420 272.745,226.000 273.200 M221.200 274.000 C 219.816 274.291,219.814 274.295,221.000 274.341 C 221.660 274.367,222.470 274.213,222.800 274.000 C 223.466 273.570,223.245 273.570,221.200 274.000 " stroke="none" fill="#fc6c6c" fill-rule="evenodd"></path></g></svg>