<svg viewBox="0 0 1401 1401" xmlns="http://www.w3.org/2000/svg">
  <path d="M700 50A646 646 0 0 0 50 701c0 173 68 337 191 459a646 646 0 0 0 919 0 646 646 0 0 0 191-459c0-174-68-338-191-460A646 646 0 0 0 700 50Zm1 1351c-188 0-364-73-496-205A696 696 0 0 1 0 701c0-188 73-364 205-496A696 696 0 0 1 701 0c187 0 363 73 495 205a696 696 0 0 1 205 496c0 187-73 363-205 495a696 696 0 0 1-495 205Z"/>
  <path d="m379 979-79 24-13-19 49-66 43 61Zm-98 85 231-70-32-45-52 15-62-87 32-43-32-46-144 193 59 83Zm466 131h-65c-27 0-41-10-41-33 0-21 13-32 41-32h65v65Zm-161-33c0 48 32 84 96 84h120v-229h-55v67h-87c-11 0-17-5-17-12v-55h-54v56c0 15 12 27 28 29a70 70 0 0 0-31 60Zm425-347L889 973l41 31 89-115 33 25-75 97 38 29 75-97 28 23-89 114 41 31 122-157-181-139m48-202-8-39 124-26 9 40c11 53-4 81-46 90-43 8-68-12-79-65Zm175-34-19-94-225 45 19 93c18 85 72 122 141 108 74-15 102-66 84-152ZM849 312l56-60 22 10-10 81-68-31Zm43-123L727 364l51 24 37-39 96 45-6 54 50 23 28-239-91-43ZM410 298l57-34c24-14 41-13 53 7 10 18 6 35-19 49l-57 34-34-56Zm158-55c-24-41-71-56-127-23l-104 62 117 196 48-28-35-57 77-45c9-6 17-5 20 2l29 47 47-28-29-48c-8-13-24-17-39-11 10-22 9-46-4-67ZM192 721l19-89 175 37 11-54-175-37 19-89-50-11-50 232 51 11m35 221-4-5-17 12-5-8-5 4 14 20 5-3-6-8 18-12m-45-17 13-2-6 11 5 8 22-16-3-4-18 12 8-14-3-4-15 3h-1l18-12-3-5-22 15 5 8"/>
</svg>